<?xml version="1.0"?>
<svg xmlns="http://www.w3.org/2000/svg" xmlns:xlink="http://www.w3.org/1999/xlink" version="1.1" id="Capa_1" x="0px" y="0px" viewBox="0 0 512 512" style="enable-background:new 0 0 512 512;" xml:space="preserve" width="512px" height="512px" class=""><g><g>
	<g>
		<g>
			<path d="M331.858,297.012c7.811,7.811,20.474,7.811,28.284,0l53.74-53.74c7.811-7.811,7.811-20.474,0-28.284     c-7.811-7.81-20.474-7.811-28.284,0L346,254.586l-39.598-39.598c-7.811-7.811-20.474-7.811-28.284,0     c-7.81,7.811-7.811,20.474,0,28.284L331.858,297.012z" data-original="#000000" class="active-path" data-old_color="#842929" fill="#959595"/>
			<path d="M126.402,297.012L166,257.414l39.598,39.598c7.811,7.811,20.474,7.811,28.284,0c7.811-7.811,7.811-20.474,0-28.284     l-53.74-53.74c-7.811-7.811-20.474-7.811-28.284,0l-53.74,53.74c-7.811,7.811-7.811,20.474,0,28.284     C105.929,304.822,118.592,304.823,126.402,297.012z" data-original="#000000" class="active-path" data-old_color="#842929" fill="#959595"/>
			<path d="M492,66H20C8.954,66,0,74.954,0,86v340c0,11.046,8.954,20,20,20h472c11.046,0,20-8.954,20-20V86     C512,74.954,503.046,66,492,66z M472,406H40V106h432V406z" data-original="#000000" class="active-path" data-old_color="#842929" fill="#959595"/>
		</g>
	</g>
</g></g> </svg>
